<svg xmlns="http://www.w3.org/2000/svg" width="7.924" height="15.124" viewBox="0 0 7.924 15.124">
  <path id="facebook" d="M7.852.107v2.4H6.425A1.237,1.237,0,0,0,6.259,2.5a1.329,1.329,0,0,0-.889.339h0a1.492,1.492,0,0,0-.277.87c0,.039,0,.078,0,.117V5.532H7.763L7.41,8.223H5.1v6.9H2.32v-6.9H0V5.532H2.32V3.551c0-.064-.007-.14-.007-.215A3.5,3.5,0,0,1,3.266.929l0,0A3.413,3.413,0,0,1,5.617,0c.057,0,.113,0,.17,0H5.779l.249,0a15.2,15.2,0,0,1,1.9.118L7.851.108Z" transform="translate(-0.001 0.005)" fill="#fff"/>
</svg>
