<svg xmlns="http://www.w3.org/2000/svg" width="15.46" height="15.46" viewBox="0 0 15.46 15.46">
  <path id="instagram" d="M10.3,7.728h0A2.576,2.576,0,1,0,9.549,9.55,2.475,2.475,0,0,0,10.3,7.767c0-.014,0-.027,0-.041v0Zm1.391,0a3.952,3.952,0,1,1-1.157-2.808A3.814,3.814,0,0,1,11.7,7.662c0,.023,0,.047,0,.07v0ZM12.782,3.6h0a.928.928,0,1,1-.272-.656.889.889,0,0,1,.267.636V3.6h0ZM7.732,1.387l-.77-.005q-.7-.005-1.062,0t-.971.03a8.106,8.106,0,0,0-1.084.109l.047-.006a4.028,4.028,0,0,0-.749.2L3.171,1.7A2.651,2.651,0,0,0,1.707,3.153L1.7,3.17a3.849,3.849,0,0,0-.183.7l0,.024a7.574,7.574,0,0,0-.1,1.023v.014q-.025.609-.03.971t0,1.062q.005.7.005.77t-.005.77q-.005.7,0,1.062t.03.971a8.106,8.106,0,0,0,.109,1.084l-.006-.047a4.028,4.028,0,0,0,.2.749L1.7,12.293a2.651,2.651,0,0,0,1.452,1.463l.017.006a3.849,3.849,0,0,0,.7.183l.024,0a7.575,7.575,0,0,0,1.023.1h.014q.609.025.971.03t1.062,0l.765-.015.77.005q.7.005,1.062,0t.971-.03a8.106,8.106,0,0,0,1.084-.109l-.047.006a4.028,4.028,0,0,0,.749-.2l-.028.009A2.651,2.651,0,0,0,13.751,12.3l.006-.017a3.849,3.849,0,0,0,.183-.7l0-.024a7.575,7.575,0,0,0,.1-1.023v-.014q.025-.609.03-.971t0-1.062q-.005-.7-.005-.77t.005-.77q.005-.7,0-1.062t-.03-.971a8.106,8.106,0,0,0-.109-1.084l.006.047a4.028,4.028,0,0,0-.2-.749l.009.028A2.651,2.651,0,0,0,12.306,1.7l-.017-.006a3.849,3.849,0,0,0-.7-.183l-.024,0a7.575,7.575,0,0,0-1.023-.1h-.014q-.609-.025-.971-.03t-1.062,0Zm7.724,6.342q0,2.3-.052,3.19c0,.065.006.141.006.217a4.277,4.277,0,0,1-4.277,4.277q-.115,0-.228-.006h.01q-.886.052-3.19.052t-3.19-.052c-.065,0-.141.006-.217.006A4.277,4.277,0,0,1,.042,11.136q0-.115.006-.228v.01Q0,10.033,0,7.728t.052-3.19c0-.065-.006-.141-.006-.217A4.277,4.277,0,0,1,4.318.044q.115,0,.228.006h-.01Q5.422,0,7.726,0t3.19.052c.065,0,.141-.006.217-.006A4.277,4.277,0,0,1,15.41,4.32q0,.115-.006.228v-.01q.052.885.052,3.19Z" transform="translate(0.004 0.002)" fill="#fff"/>
</svg>
