<svg xmlns="http://www.w3.org/2000/svg" width="16.177" height="15.46" viewBox="0 0 16.177 15.46">
  <path id="linkedin" d="M3.674,5.022V15.457H.2V5.022ZM3.895,1.8c0,.019,0,.041,0,.063a1.661,1.661,0,0,1-.532,1.221h0A1.975,1.975,0,0,1,2.026,3.6l-.1,0H1.914l-.088,0a1.9,1.9,0,0,1-1.3-.518h0A1.72,1.72,0,0,1,0,1.845c0-.015,0-.031,0-.047v0c0-.014,0-.029,0-.044A1.692,1.692,0,0,1,.539.513h0A1.975,1.975,0,0,1,1.872,0L1.96,0h0l.092,0a1.921,1.921,0,0,1,1.31.514h0a1.752,1.752,0,0,1,.538,1.265V1.8h0ZM16.172,9.478v5.98H12.709V9.876c0-.051,0-.11,0-.169a3.029,3.029,0,0,0-.439-1.576l.008.014a1.5,1.5,0,0,0-1.221-.631c-.039,0-.077,0-.116,0h-.052a1.7,1.7,0,0,0-1.057.367l0,0a2.25,2.25,0,0,0-.665.886l-.005.015a2.487,2.487,0,0,0-.117.765q0,.046,0,.093v5.819H5.59q.021-4.2.021-6.813T5.6,5.529l-.01-.506H9.055V6.539H9.033a4.565,4.565,0,0,1,.437-.6l-.005.006a4.487,4.487,0,0,1,.585-.54l.01-.008a2.713,2.713,0,0,1,.9-.453l.019,0a4.088,4.088,0,0,1,1.157-.164h.048c.046,0,.1,0,.153,0a3.73,3.73,0,0,1,2.741,1.2l0,0a5.011,5.011,0,0,1,1.1,3.5Z" transform="translate(0.003 0.002)" fill="#fff"/>
</svg>
