<svg id="Logo_reanmo" data-name="Logo reanmo" xmlns="http://www.w3.org/2000/svg" width="215.021" height="30.941" viewBox="0 0 215.021 30.941">
  <path id="Pfad_446" data-name="Pfad 446" d="M72,142.687V112H97.269v3.836H75.888v26.851Z" transform="translate(-72 -112)" fill="#00acdf"/>
  <path id="Pfad_447" data-name="Pfad 447" d="M104,167.868V144h18.358v3.836h-14.47v20.032Z" transform="translate(-97.09 -137.182)" fill="#00acdf"/>
  <path id="Pfad_448" data-name="Pfad 448" d="M136,193.048V176h11.447v3.836h-7.559v13.212Z" transform="translate(-122.177 -162.361)" fill="#00acdf"/>
  <g id="Gruppe_296" data-name="Gruppe 296" transform="translate(37.058 4.303)">
    <path id="Pfad_449" data-name="Pfad 449" d="M249,158.407h-5.421v-25.8H249v3.745a8.567,8.567,0,0,1,7.847-4.167v5.524h-1.379c-3.995,0-6.468,1.639-6.468,7.116Z" transform="translate(-243.579 -132.19)" fill="#fff"/>
    <path id="Pfad_450" data-name="Pfad 450" d="M332.842,158.828c-7.514,0-13.078-5.243-13.078-13.342s5.327-13.3,13.078-13.3c7.466,0,12.745,5.1,12.745,12.687a16.222,16.222,0,0,1-.19,2.622H325.376a7.164,7.164,0,0,0,7.466,6.835,6.354,6.354,0,0,0,6.182-3.6h5.85C343.4,155.223,339.262,158.828,332.842,158.828Zm-7.419-15.636h14.5c-.1-3.979-3.282-6.507-7.324-6.507A7.1,7.1,0,0,0,325.423,143.192Z" transform="translate(-303.31 -132.19)" fill="#fff"/>
    <path id="Pfad_451" data-name="Pfad 451" d="M467.988,132.19a11.217,11.217,0,0,1,9.083,4.167v-3.745h5.469v25.8h-5.469v-3.839a11.342,11.342,0,0,1-9.178,4.26c-6.8,0-12.27-5.477-12.27-13.436S461.092,132.19,467.988,132.19Zm1.141,4.635c-4.042,0-7.942,3-7.942,8.567s3.9,8.8,7.942,8.8c4.09,0,7.942-3.137,7.942-8.708C477.071,139.961,473.219,136.825,469.129,136.825Z" transform="translate(-409.827 -132.19)" fill="#fff"/>
    <path id="Pfad_452" data-name="Pfad 452" d="M617.88,143.987c0-4.728-2.616-7.163-6.563-7.163-3.995,0-6.61,2.434-6.61,7.163v14.419h-5.422v-25.8h5.422v2.95a10.151,10.151,0,0,1,7.8-3.371c6.135,0,10.748,3.792,10.748,11v15.215H617.88Z" transform="translate(-522.462 -132.19)" fill="#fff"/>
    <path id="Pfad_453" data-name="Pfad 453" d="M766.335,143.987c0-4.728-2.616-7.163-6.563-7.163-3.995,0-6.61,2.434-6.61,7.163v14.419h-5.374V143.987c0-4.728-2.616-7.163-6.563-7.163-3.995,0-6.61,2.434-6.61,7.163v14.419h-5.421v-25.8h5.421v2.95a10.048,10.048,0,0,1,7.752-3.371c4.138,0,7.609,1.732,9.416,5.1,1.617-3.137,5.326-5.1,9.131-5.1,6.135,0,10.8,3.792,10.8,11v15.215h-5.374Z" transform="translate(-624.313 -132.19)" fill="#fff"/>
    <path id="Pfad_454" data-name="Pfad 454" d="M956.955,158.828c-7.467,0-13.126-5.243-13.126-13.342s5.9-13.3,13.363-13.3,13.364,5.2,13.364,13.3S964.468,158.828,956.955,158.828Zm0-4.635c4.042,0,8.037-2.856,8.037-8.708s-3.852-8.661-7.895-8.661c-4.09,0-7.752,2.809-7.752,8.661S952.865,154.193,956.955,154.193Z" transform="translate(-792.593 -132.19)" fill="#fff"/>
  </g>
</svg>
