<svg xmlns="http://www.w3.org/2000/svg" width="22.466" height="15.797" viewBox="0 0 22.466 15.797">
  <path id="youtube-play" d="M8.913,10.805l6.065-3.134L8.913,4.5ZM11.232,0Q13.338,0,15.3.056t2.877.119l.915.053L19.3.247a2.782,2.782,0,0,1,.306.04l-.017,0q.088.019.295.057a1.763,1.763,0,0,1,.369.1l-.012,0q.151.063.351.163a2.439,2.439,0,0,1,.394.248l-.005,0a3,3,0,0,1,.361.33l0,0a2.4,2.4,0,0,1,.19.225l0,.007a4.075,4.075,0,0,1,.353.7l.01.029a4.621,4.621,0,0,1,.33,1.241l0,.023q.1.8.158,1.711t.069,1.422V8.749c0,.051,0,.113,0,.173a26.8,26.8,0,0,1-.242,3.6l.015-.137a5.009,5.009,0,0,1-.328,1.281l.012-.034a3.188,3.188,0,0,1-.408.781l.007-.01-.175.211a2.985,2.985,0,0,1-.357.327l-.007.005a2.058,2.058,0,0,1-.376.232l-.013.005q-.2.094-.351.158a1.7,1.7,0,0,1-.347.1h-.011l-.3.057q-.094.019-.288.038l-.207.019q-3.143.245-7.856.245-2.595-.025-4.507-.082T4.213,15.62L3.6,15.568l-.451-.053a5.846,5.846,0,0,1-.725-.134l.041.009a3.838,3.838,0,0,1-.66-.273l.021.01a2.525,2.525,0,0,1-.707-.513h0a2.4,2.4,0,0,1-.19-.225l0-.007a4.075,4.075,0,0,1-.353-.7l-.01-.029a4.621,4.621,0,0,1-.33-1.241l0-.023q-.1-.8-.158-1.711T0,9.25V7.044c0-.051,0-.113,0-.173a26.8,26.8,0,0,1,.242-3.6l-.015.137A5.009,5.009,0,0,1,.552,2.131L.54,2.164a3.188,3.188,0,0,1,.408-.781l-.007.01.175-.211A2.985,2.985,0,0,1,1.474.856L1.48.851A2.377,2.377,0,0,1,1.855.612L1.869.606q.2-.1.351-.163a1.7,1.7,0,0,1,.347-.1h.011q.207-.038.295-.057A2.489,2.489,0,0,1,3.152.249h.01L3.372.229Q6.52,0,11.234,0Z" transform="translate(0.002 0.001)" fill="#fff"/>
</svg>
